<?xml version="1.0" encoding="utf-8"?>
<!-- Generator: Adobe Illustrator 16.0.4, SVG Export Plug-In . SVG Version: 6.00 Build 0)  -->
<!DOCTYPE svg PUBLIC "-//W3C//DTD SVG 1.1//EN" "http://www.w3.org/Graphics/SVG/1.1/DTD/svg11.dtd">
<svg version="1.1" id="Layer_1" xmlns="http://www.w3.org/2000/svg" xmlns:xlink="http://www.w3.org/1999/xlink" x="0px" y="0px"
	 width="334.16px" height="103.118px" viewBox="0 0 334.16 103.118" enable-background="new 0 0 334.16 103.118"
	 xml:space="preserve">
<g>
	<polygon fill="#FFFFFF" points="101.089,101.089 73.872,101.089 71.928,103.034 56.375,103.034 54.431,101.089 1.944,101.089 
		1.944,1.944 13.606,1.944 15.552,0 31.103,0 33.046,1.944 101.089,1.944 	"/>
	<g>
		<path fill="#ED263D" d="M55.083,47.087l-23.346,8.497c-0.38,0.139-0.634,0.5-0.634,0.905v15.236c0,0.669,0.665,1.134,1.293,0.905
			l21.428-7.799c1.532-0.558,2.552-2.014,2.552-3.645V47.993C56.376,47.324,55.712,46.858,55.083,47.087z"/>
		<path fill="#ED263D" d="M56.376,78.385L27.283,88.974c-5.701,2.075-11.731-2.146-11.731-8.214V0.084H0v103.033h56.376V78.385z"/>
		<path fill="#ED263D" d="M31.104,0.084v35.709c0,2.692,2.676,4.566,5.206,3.645l23.888-8.694c5.701-2.075,11.73,2.146,11.73,8.214
			v64.159h31.104V0.084H31.104z"/>
	</g>
</g>
<g>
	<path fill="#FFFFFF" d="M144.563,46.919c0.862-0.184,3.079-0.492,4.864-0.492V13.423c-1.786,0-4.002-0.308-4.864-0.493V9.421
		h16.379c7.635,0,13.546,2.709,13.546,10.098c0,4.926-2.895,8.127-7.389,9.298v0.123c5.049,0.863,9.174,4.187,9.174,9.914
		c0,8.252-6.342,11.576-15.517,11.576h-16.194V46.919z M154.908,27.093h5.418c5.973,0,8.558-2.401,8.558-6.958
		c0-4.495-2.956-6.527-8.435-6.527h-5.542V27.093z M154.908,46.181h5.665c6.834,0,9.975-2.339,9.975-7.389
		c0-4.802-2.833-7.697-9.667-7.697h-5.973V46.181z"/>
	<path fill="#FFFFFF" d="M180.345,36.021c0-9.79,5.787-15.947,14.039-15.947c7.265,0,11.514,4.988,11.514,12.808
		c0,0.739-0.062,2.216-0.123,2.895h-19.828c0.062,6.957,3.386,11.206,9.606,11.206c3.326,0,6.219-1.54,7.573-2.525l1.909,3.694
		c-1.538,1.047-4.926,3.018-10.405,3.018C185.393,51.168,180.345,44.827,180.345,36.021z M200.479,32.02
		c0-4.373-1.724-8.005-6.588-8.005c-4.372,0-7.266,3.141-7.759,8.005H200.479z"/>
	<path fill="#FFFFFF" d="M208.857,46.919c0.863-0.184,3.018-0.492,4.804-0.492V24.63c-1.971-0.185-3.879-0.246-4.804-0.246v-3.448
		c1.664-0.246,5.851-0.493,10.16-0.493l-0.246,5.418h0.124c1.107-2.587,3.816-5.789,7.757-5.789c1.909,0,2.895,0.431,3.326,0.617
		l-1.293,4.864c-0.369-0.184-1.17-0.555-2.71-0.555c-4.002,0-6.649,4.373-7.143,5.358v16.07c1.786,0,4.558,0.308,5.419,0.492v3.51
		h-15.395V46.919z"/>
	<path fill="#FFFFFF" d="M229.305,46.919c0.863-0.184,2.955-0.492,4.741-0.492V10.16c-1.97-0.185-3.878-0.246-4.802-0.246v-3.51
		c1.723-0.185,5.911-0.492,10.282-0.492l-0.308,4.864v35.651c1.724,0,3.325,0.308,4.187,0.492v3.51h-14.101V46.919z M238.837,35.621
		l10.664-10.868c-1.478-0.123-3.016-0.308-3.633-0.493v-3.448h14.039v3.448c-0.801,0.185-2.771,0.432-4.556,0.493l-16.301,16.055
		L238.837,35.621z"/>
	<path fill="#FFFFFF" d="M264.203,46.919c0.862-0.184,2.955-0.492,4.741-0.492V10.16c-1.971-0.185-3.879-0.246-4.804-0.246v-3.51
		c1.726-0.185,5.911-0.492,10.284-0.492l-0.309,4.864v35.651c1.786,0,3.879,0.308,4.742,0.492v3.51h-14.655V46.919z"/>
	<path fill="#FFFFFF" d="M279.847,36.021c0-9.79,5.787-15.947,14.039-15.947c7.265,0,11.514,4.988,11.514,12.808
		c0,0.739-0.062,2.216-0.123,2.895h-19.827c0.062,6.957,3.386,11.206,9.605,11.206c3.326,0,6.22-1.54,7.573-2.525l1.908,3.694
		c-1.538,1.047-4.926,3.018-10.404,3.018C284.895,51.168,279.847,44.827,279.847,36.021z M299.98,32.02
		c0-4.373-1.724-8.005-6.588-8.005c-4.371,0-7.267,3.141-7.759,8.005H299.98z"/>
	<path fill="#FFFFFF" d="M308.607,36.021c0-9.79,5.787-15.947,14.039-15.947c7.265,0,11.514,4.988,11.514,12.808
		c0,0.739-0.062,2.216-0.123,2.895H314.21c0.062,6.957,3.386,11.206,9.605,11.206c3.326,0,6.22-1.54,7.573-2.525l1.908,3.694
		c-1.538,1.047-4.926,3.018-10.404,3.018C313.655,51.168,308.607,44.827,308.607,36.021z M328.741,32.02
		c0-4.373-1.724-8.005-6.588-8.005c-4.371,0-7.267,3.141-7.759,8.005H328.741z"/>
	<path fill="#FFFFFF" d="M246.764,32.357l5.474,8.575c1.215,1.885,2.492,3.647,3.587,4.621c1.337,1.215,2.701,1.144,4.101,1.144
		c0.363,0,0.973,0,1.52-0.121l0.276,3.731c-0.79,0.183-2.128,0.365-3.04,0.365c-2.919,0-4.812-0.707-6.332-2.044
		c-1.094-0.973-2.371-2.736-3.405-4.378l-5.715-8.999L246.764,32.357z"/>
	<path fill="#FFFFFF" d="M261.721,50.308"/>
</g>
<g>
	<path fill="#FFFFFF" d="M147.357,66.216h2.376v23.328h11.88v2.16h-14.256V66.216z"/>
	<path fill="#FFFFFF" d="M164.565,68.485c0-0.456,0.156-0.84,0.468-1.152c0.312-0.312,0.696-0.468,1.152-0.468
		c0.456,0,0.84,0.156,1.152,0.468c0.312,0.312,0.468,0.696,0.468,1.152s-0.156,0.84-0.468,1.151
		c-0.312,0.312-0.697,0.469-1.152,0.469c-0.456,0-0.84-0.156-1.152-0.469C164.721,69.325,164.565,68.941,164.565,68.485z
		 M165.105,75.073h2.16v16.632h-2.16V75.073z"/>
	<path fill="#FFFFFF" d="M172.917,64.489h2.16v13.5h0.072c0.336-0.576,0.756-1.074,1.26-1.494c0.504-0.42,1.05-0.768,1.638-1.044
		c0.588-0.275,1.206-0.479,1.854-0.612c0.648-0.132,1.284-0.198,1.908-0.198c1.271,0,2.441,0.217,3.51,0.648
		c1.068,0.432,1.992,1.038,2.772,1.818c0.78,0.78,1.386,1.704,1.818,2.771c0.432,1.068,0.648,2.238,0.648,3.51
		c0,1.272-0.216,2.442-0.648,3.511c-0.432,1.067-1.038,1.992-1.818,2.771c-0.78,0.78-1.704,1.386-2.772,1.818
		c-1.068,0.432-2.238,0.647-3.51,0.647c-0.625,0-1.26-0.066-1.908-0.197c-0.648-0.133-1.266-0.336-1.854-0.612
		c-0.588-0.275-1.134-0.624-1.638-1.044c-0.504-0.42-0.924-0.918-1.26-1.494h-0.072v2.916h-2.16V64.489z M174.861,83.388
		c0,0.937,0.18,1.818,0.54,2.646s0.852,1.548,1.476,2.16c0.624,0.611,1.355,1.098,2.196,1.458c0.84,0.359,1.752,0.54,2.736,0.54
		c1.008,0,1.919-0.181,2.736-0.54c0.815-0.36,1.512-0.847,2.088-1.458c0.576-0.612,1.014-1.332,1.314-2.16
		c0.3-0.828,0.45-1.71,0.45-2.646c0-0.936-0.15-1.817-0.45-2.646c-0.3-0.828-0.738-1.548-1.314-2.16s-1.272-1.098-2.088-1.458
		c-0.816-0.36-1.728-0.54-2.736-0.54c-0.984,0-1.896,0.18-2.736,0.54c-0.84,0.36-1.572,0.846-2.196,1.458
		c-0.625,0.612-1.116,1.332-1.476,2.16S174.861,82.453,174.861,83.388z"/>
	<path fill="#FFFFFF" d="M195.38,79.752c0-0.312-0.013-0.689-0.036-1.134c-0.024-0.444-0.042-0.894-0.054-1.35
		c-0.013-0.456-0.03-0.883-0.054-1.278c-0.024-0.396-0.036-0.702-0.036-0.918h2.16c0.023,0.624,0.041,1.224,0.054,1.8
		c0.012,0.576,0.042,0.948,0.09,1.116c0.552-0.984,1.26-1.788,2.124-2.412s1.92-0.937,3.168-0.937c0.216,0,0.426,0.019,0.63,0.055
		s0.414,0.078,0.63,0.126l-0.252,2.124c-0.288-0.096-0.563-0.145-0.828-0.145c-0.936,0-1.745,0.15-2.43,0.45
		c-0.684,0.301-1.248,0.715-1.692,1.242c-0.444,0.528-0.773,1.146-0.989,1.854c-0.216,0.709-0.324,1.471-0.324,2.286v9.072h-2.16
		V79.752z"/>
	<path fill="#FFFFFF" d="M220.291,84.72c0,0.816,0.006,1.549,0.019,2.196c0.012,0.648,0.029,1.248,0.054,1.8
		c0.023,0.553,0.054,1.068,0.09,1.548c0.036,0.48,0.09,0.961,0.162,1.44H218.6c-0.145-0.815-0.216-1.716-0.216-2.7h-0.072
		c-0.625,1.08-1.398,1.872-2.322,2.376s-2.093,0.756-3.509,0.756c-0.72,0-1.429-0.09-2.124-0.27c-0.696-0.18-1.32-0.468-1.872-0.864
		c-0.553-0.396-1.003-0.905-1.35-1.53c-0.349-0.623-0.522-1.379-0.522-2.268c0-1.271,0.324-2.28,0.972-3.024
		c0.648-0.743,1.446-1.301,2.395-1.674c0.947-0.371,1.956-0.611,3.023-0.72c1.068-0.108,2.009-0.162,2.826-0.162h2.521v-1.008
		c0-1.44-0.444-2.472-1.332-3.096c-0.889-0.624-2.005-0.937-3.348-0.937c-1.92,0-3.612,0.624-5.076,1.872l-1.26-1.476
		c0.792-0.769,1.776-1.351,2.952-1.746c1.176-0.396,2.304-0.595,3.384-0.595c2.016,0,3.624,0.475,4.824,1.423s1.8,2.478,1.8,4.59
		V84.72z M215.972,83.353c-0.913,0-1.794,0.06-2.646,0.18c-0.853,0.12-1.62,0.324-2.304,0.612c-0.685,0.287-1.23,0.672-1.638,1.151
		c-0.409,0.48-0.612,1.08-0.612,1.8c0,0.505,0.113,0.954,0.342,1.351c0.228,0.396,0.522,0.72,0.882,0.972
		c0.36,0.252,0.762,0.444,1.206,0.576s0.894,0.198,1.351,0.198c1.151,0,2.1-0.168,2.843-0.504c0.743-0.336,1.338-0.774,1.782-1.314
		c0.443-0.54,0.749-1.152,0.918-1.836c0.167-0.684,0.252-1.374,0.252-2.07v-1.115H215.972z"/>
	<path fill="#FFFFFF" d="M226.051,79.752c0-0.312-0.013-0.689-0.036-1.134c-0.024-0.444-0.042-0.894-0.054-1.35
		c-0.013-0.456-0.03-0.883-0.054-1.278c-0.024-0.396-0.036-0.702-0.036-0.918h2.16c0.023,0.624,0.041,1.224,0.054,1.8
		c0.012,0.576,0.042,0.948,0.09,1.116c0.552-0.984,1.26-1.788,2.124-2.412s1.92-0.937,3.168-0.937c0.216,0,0.426,0.019,0.63,0.055
		s0.414,0.078,0.63,0.126l-0.252,2.124c-0.288-0.096-0.563-0.145-0.828-0.145c-0.936,0-1.745,0.15-2.43,0.45
		c-0.684,0.301-1.248,0.715-1.692,1.242c-0.444,0.528-0.773,1.146-0.989,1.854c-0.216,0.709-0.324,1.471-0.324,2.286v9.072h-2.16
		V79.752z"/>
	<path fill="#FFFFFF" d="M242.718,96.853c-0.408,1.079-0.972,1.932-1.691,2.556s-1.681,0.936-2.88,0.936
		c-0.36,0-0.721-0.03-1.08-0.09c-0.36-0.06-0.708-0.138-1.044-0.233l0.216-2.017c0.312,0.096,0.63,0.186,0.954,0.271
		c0.324,0.084,0.653,0.126,0.99,0.126c0.383,0,0.726-0.085,1.025-0.252c0.3-0.169,0.559-0.385,0.774-0.648
		c0.216-0.265,0.401-0.558,0.558-0.882s0.294-0.654,0.414-0.99l1.512-3.852l-6.768-16.704h2.412l5.508,14.004l5.364-14.004h2.304
		L242.718,96.853z"/>
</g>
<g>
</g>
<g>
</g>
<g>
</g>
<g>
</g>
<g>
</g>
<g>
</g>
</svg>
